<svg version="1.1" id="Layer_1" xmlns="http://www.w3.org/2000/svg" x="0" y="0" viewBox="0 0 150.1 196" xml:space="preserve"><style>.st1,.st2{fill-rule:evenodd;clip-rule:evenodd;fill:#770a39}.st2{fill:#c01701}</style><path d="M.2 108.2c-.2 9.8-.6 19.7 1.4 29.4.5 2.3 1.1 4.5 2 6.7 2.5 6.7 7.1 10.6 14.5 10.8 1.9.1 3.8.3 5.6.2 5.6-.1 5.7-.2 6 5.7.4 7 1 14 2 21 .7 5.2 3.6 8.7 8.2 10.6 9.8 4.1 19.9 4.6 29.8.2 5.4-2.4 9-6.4 9.8-12.8.8-6.8 1.4-13.5 1.9-20.3.2-2.2.8-3.1 3.2-2.7 2.7.4 6-.4 7.9.9 2.1 1.5 0 4.9.3 7.5.4 4.8.9 9.6 2.3 14.2 1.4 4.8 4.5 7.5 9.4 8.3 6.6 1.1 13.1.9 19.6-.1 5.2-.8 8.5-4 9.1-8.9 3.3-24.7 9.4-49 9.4-74 0-6.7-.6-13.4-1.8-20-.3-1.5-.6-2.9.8-4.5 12.8-14.3 10.8-34.6-4.6-46.1-3.4-2.5-5.7-5.3-7.4-9.2-5.2-11.4-14.8-18.1-26.7-21.5C91 .3 78.8-.9 66.6.6c-15.9 2-25.5 11.8-31 26.3-2.9 7.9-4.5 16-5.5 24.3-.2 2-1 2.5-2.8 2.5-5.6.2-11.2.7-16.7 2.4-4.2 1.3-6.7 4-7.6 8.4C1 74.8.5 85.1.2 95.5c-.1 4.2 0 8.4 0 12.7z" fill-rule="evenodd" clip-rule="evenodd" fill="#060103"/><path class="st1" d="M52.5 14.5c-4.3 2.7-6.5 7-8.5 11.3-3.9 8.3-5.7 17-6.5 26.1-2 23.5-3.3 47.1-2.6 70.7.6 18.9 1.3 37.7 3.4 56.5.4 3.4 1.6 6.2 5 7.4 7.9 2.9 15.8 3.2 23.6-.2 3.1-1.3 5.1-3.5 5.4-7.1.8-8.2 1.6-16.3 2.6-24.4.5-4.4 1.7-5.4 6.3-5.2 4.4.2 8.8.9 13.3 1.3 8 .7 15.8-.7 24.6-3.1-3.8 4.4-8 6.3-12.4 7.7-6.7 2.1-7 2.1-6.8 9.2.1 4.4.5 8.9 2 13.2.7 2 2 3 4 3.4 5.4 1.1 10.7.6 16.1-.1 2.7-.3 4.2-1.8 4.5-4.5.9-10.5 3.2-20.8 4.9-31.2 1.9-11.5 3.1-23 4.1-34.5.4-5.1-.6-10.1-.6-15.1-2.1.6-2.1 2.7-2.6 4.2-2.4 7.3-5.8 14.1-10.8 20-5.9 6.9-13.2 10.8-22.4 10.8-5.3 0-10.6.2-15.8-.8-10.8-1.9-20.1-6.3-26.3-15.9-4.2-6.5-5.6-13.9-6.3-21.5-1.1-12.4-3.5-24.6-4.7-37-1.3-13.2-.9-26.1 5.9-38 .7-.9 1.5-2 .6-3.2z"/><path class="st2" d="M52.5 14.5c-3.2 6.5-6.4 13-7.3 20.4-.9 6.9-.7 13.8-.1 20.7.9 10.4 3.1 20.5 4 30.9.6 7.5 1.5 15.1 4.2 22.3 4.5 12 13.9 18.2 25.6 21.5 7.7 2.1 15.8 2.2 23.8 1.4 10-.9 17-7 22.7-14.9 4.6-6.4 6.8-13.8 9.6-21 .2-3.8-.8-7.4-1.5-11-15.2 5.1-30.5 6.3-46 3.3-13.2-2.6-21.1-11.4-23-24.8-.9-6.2-1.4-12.4.6-18.5 2.5-7.7 7.4-12.4 15.5-14.1 9.8-1.9 19.6-3.7 29.7-3.4 4.2.1 8.4.6 13 1-2.6-5.7-6.4-10.1-11.6-13-15.8-8.7-32.6-9.7-49.9-6.2-3.6.7-6.9 2.5-9.3 5.4z"/><path class="st1" d="M8.1 81.6c-1.2 14-2.1 28-.9 42.1.4 4.7.6 9.3 1.6 13.9 2.1 9.8 6.5 11.4 16 10.9 3.5-.2 4.4-1.1 4.2-5.3-.9-16.9-1.6-33.8-.8-50.7.2-5.3.4-10.5.5-15.8-2.4-2.5-5.5-2.7-8.5-2.2-5 .9-9.5 2.4-12.1 7.1z"/><path d="M77.3 39.5c-6.5 4.4-6.7 11.2-6.3 18 .2 3.1.7 6.3 1.6 9.3 2.7 8.8 9 13.3 17.6 14.7 12.9 2 25.8 1.6 38.3-2.7 11.2-3.8 16.1-12 13.6-25.3-6.2 8.4-15.6 9.9-24.9 11-8.9 1.1-17.8.7-26-3.6-7.7-4-13.5-9.5-13.1-19.1 0-.9-.1-1.7-.8-2.3z" fill-rule="evenodd" clip-rule="evenodd" fill="#4b646e"/><path d="M77.3 39.5c-1.7 12.2 6.1 19.9 16.8 23.6 14 4.9 27.9 3.3 41.4-2.6 3-1.3 6.1-3.2 6.7-7.1-3.3-10.4-10.6-16.2-21.3-18-14.1-2.4-27.8-.2-41.4 2.9-.8.2-1.5.8-2.2 1.2z" fill-rule="evenodd" clip-rule="evenodd" fill="#96c7dc"/><path class="st2" d="M8.1 81.6c2.6-1.7 4.8-3.9 7.9-5 4.4-1.7 8.4-1.1 12.6.2.3-4.4.5-8.9.8-13.3.1-1.9-.5-2.5-2.4-2.5-4.6.1-9.1.6-13.5 1.8-2 .5-3.2 1.7-3.6 3.8-1 5-1.6 10-1.8 15z"/><path d="M123.1 52.8c2.5-.3 6 1.1 6.9-2.8.8-3.6-1.8-5.7-4.6-7-8-3.9-16.3-5-24.8-2.3-3.6 1.1-5.4 3.4-4.9 6.3.6 3.3 3.2 4.1 6 4.3 7 .6 14.1 1 21.4 1.5z" fill-rule="evenodd" clip-rule="evenodd" fill="#fdfefe"/></svg>